<?xml version="1.0" encoding="UTF-8"?>
<svg version="1.1" xmlns="http://www.w3.org/2000/svg" width="500" height="500">
<path d="M0 0 C0.81227051 0.17128418 1.62454102 0.34256836 2.46142578 0.51904297 C37.34481704 7.94969783 68.83590374 26.04623794 94.8671875 50.05859375 C96.73803098 51.76154102 98.64823862 53.36068802 100.625 54.9375 C101.800625 55.9584375 101.800625 55.9584375 103 57 C103 57.66 103 58.32 103 59 C103.66 59 104.32 59 105 59 C109.67227358 63.39352999 113.49805336 68.82390652 117.4375 73.875 C117.88673828 74.44629639 118.33597656 75.01759277 118.79882812 75.60620117 C122 79.76338193 122 79.76338193 122 82 C122.66 82 123.32 82 124 82 C125.14160156 83.49365234 125.14160156 83.49365234 126.390625 85.5859375 C126.84969238 86.34632324 127.30875977 87.10670898 127.78173828 87.89013672 C128.26626465 88.7101416 128.75079102 89.53014648 129.25 90.375 C129.99805908 91.62627686 129.99805908 91.62627686 130.76123047 92.90283203 C131.74577806 94.54974084 132.72810122 96.19798184 133.70800781 97.84765625 C135.13301236 100.22158672 136.63041798 102.54446532 138.125 104.875 C164.83808191 149.80856553 168.60871279 207.04306211 156.75488281 257.06494141 C150.13968329 282.78548754 137.88949413 306.84062339 122 328 C121.40574219 328.80824219 120.81148438 329.61648438 120.19921875 330.44921875 C87.80868847 373.50775185 38.45574771 401.87631807 -14.59375 410.08984375 C-23.96303989 411.29034939 -33.30586045 411.33641255 -42.74121094 411.31567383 C-45.7314932 411.31251952 -48.72077701 411.33604187 -51.7109375 411.36132812 C-64.08428657 411.40228005 -75.86527311 410.42644385 -88 408 C-89.00514648 407.80124268 -90.01029297 407.60248535 -91.04589844 407.39770508 C-93.38047394 406.89831247 -95.68885859 406.34774016 -98 405.75 C-98.81557373 405.54165527 -99.63114746 405.33331055 -100.47143555 405.11865234 C-126.03537086 398.34255108 -153.02182395 386.53186877 -173 369 C-174.62091504 367.7239605 -176.24607824 366.45330262 -177.875 365.1875 C-216.98369958 333.79037498 -243.46280427 288.33431985 -252 239 C-252.11859375 238.33371582 -252.2371875 237.66743164 -252.359375 236.98095703 C-256.30828601 213.56367967 -255.57471577 187.24028951 -251 164 C-250.8443457 163.16500977 -250.68869141 162.33001953 -250.52832031 161.46972656 C-246.5195904 140.52991384 -238.63630348 120.43935581 -228 102 C-227.0402711 100.1465553 -226.08186362 98.29242556 -225.125 96.4375 C-219.15051848 85.56748645 -211.35721002 75.97415071 -203.25 66.64453125 C-200.93159922 64.02381995 -200.93159922 64.02381995 -199 61 C-198.34 61 -197.68 61 -197 61 C-197 60.34 -197 59.68 -197 59 C-194.625 56.375 -194.625 56.375 -192 54 C-191.34 54 -190.68 54 -190 54 C-190 53.34 -190 52.68 -190 52 C-189.34 52 -188.68 52 -188 52 C-188 51.34 -188 50.68 -188 50 C-185.03421769 47.24223849 -181.81617137 44.78819657 -178.63378906 42.28515625 C-177.56252179 41.44248576 -176.49405016 40.59624637 -175.42871094 39.74609375 C-149.63949966 19.16633541 -120.25804312 6.00880894 -88 -1 C-87.21705566 -1.17789063 -86.43411133 -1.35578125 -85.62744141 -1.5390625 C-58.61582176 -7.41090046 -26.82217224 -6.11751655 0 0 Z " fill="#19160E" transform="translate(296,45)"/>
<path d="M0 0 C0.8573877 0.14453613 1.71477539 0.28907227 2.59814453 0.43798828 C43.14016804 7.4152033 80.47097723 25.33087917 111.2421875 52.6015625 C113.94659536 55.05645382 113.94659536 55.05645382 117 57 C117 57.66 117 58.32 117 59 C117.66 59 118.32 59 119 59 C119 59.66 119 60.32 119 61 C119.56589844 61.23203125 120.13179688 61.4640625 120.71484375 61.703125 C129.66038644 66.77991162 136.61104258 78.36566093 142.83251953 86.48144531 C143.79403941 87.7321048 144.76836005 88.97291228 145.74609375 90.2109375 C150.35605203 96.13267253 154.17065004 102.557024 158 109 C158.67417969 110.12921875 159.34835937 111.2584375 160.04296875 112.421875 C171.406748 131.70686072 178.89242228 152.22159929 184 174 C184.30091553 175.23665405 184.30091553 175.23665405 184.60791016 176.49829102 C191.53604759 206.43062325 191.47601121 243.19012466 184 273 C183.61400635 274.57442871 183.61400635 274.57442871 183.22021484 276.18066406 C180.05704785 288.80738924 176.36609032 301.12342159 171 313 C170.68337402 313.71784668 170.36674805 314.43569336 170.04052734 315.17529297 C158.31623528 341.62311459 141.82477044 364.04974166 122 385 C121.36191406 385.680625 120.72382813 386.36125 120.06640625 387.0625 C115.11832846 392.1885662 109.57567323 396.57990672 104 401 C103.48630859 401.41185547 102.97261719 401.82371094 102.44335938 402.24804688 C94.62783906 408.50239051 86.61909108 413.88867855 78 419 C77.22914063 419.49886719 76.45828125 419.99773437 75.6640625 420.51171875 C56.78564043 432.60053288 33.83819546 440.40857728 12 445 C11.16210938 445.17660156 10.32421875 445.35320312 9.4609375 445.53515625 C-3.02832711 448.10859262 -15.24925911 449.78703259 -28 450 C-28.80147461 450.01514648 -29.60294922 450.03029297 -30.42871094 450.04589844 C-36.28861622 450.13971184 -42.1405078 450.10104622 -48 450 C-48.72590332 449.99274902 -49.45180664 449.98549805 -50.19970703 449.97802734 C-84.35526257 449.51316511 -118.3966242 438.62128074 -148 422 C-148.92554688 421.52175781 -149.85109375 421.04351562 -150.8046875 420.55078125 C-189.7725977 400.37303547 -222.25293532 364.27336467 -241 325 C-241.515625 323.92621094 -242.03125 322.85242188 -242.5625 321.74609375 C-256.98056532 291.14525198 -264.41160189 259.65110407 -264.26074219 225.79760742 C-264.24999858 222.93712241 -264.26071888 220.07726332 -264.2734375 217.21679688 C-264.28550369 202.68612693 -263.17318762 188.69751479 -259.875 174.5 C-259.55958252 173.13367432 -259.55958252 173.13367432 -259.23779297 171.73974609 C-250.5100128 135.45315194 -233.74477376 104.09614754 -210.04296875 75.47265625 C-208.61170921 73.74036698 -207.22143518 71.97377471 -205.86328125 70.18359375 C-205.24839844 69.46300781 -204.63351563 68.74242188 -204 68 C-203.34 68 -202.68 68 -202 68 C-201.773125 67.443125 -201.54625 66.88625 -201.3125 66.3125 C-199.62449964 63.33840412 -197.53323483 61.27991135 -195 59 C-194.34 59 -193.68 59 -193 59 C-193 58.34 -193 57.68 -193 57 C-191.42578125 55.4140625 -191.42578125 55.4140625 -189.3125 53.625 C-188.22001953 52.69880859 -188.22001953 52.69880859 -187.10546875 51.75390625 C-186.41066406 51.17511719 -185.71585937 50.59632812 -185 50 C-184.05125 49.195625 -183.1025 48.39125 -182.125 47.5625 C-180 46 -180 46 -178 46 C-178 45.34 -178 44.68 -178 44 C-175.8671875 42.37109375 -175.8671875 42.37109375 -172.875 40.4375 C-171.77285156 39.72335938 -170.67070312 39.00921875 -169.53515625 38.2734375 C-168.95137207 37.89928711 -168.36758789 37.52513672 -167.76611328 37.13964844 C-166.0610905 36.03942085 -164.37198012 34.91465341 -162.68359375 33.7890625 C-150.81089242 25.90456229 -138.46020941 18.95324833 -125.0234375 14.109375 C-122.05645812 13.0207159 -119.20042106 11.78176222 -116.3125 10.5 C-101.89134235 4.47860041 -86.36087011 1.50746714 -71 -1 C-70.27441895 -1.12004395 -69.54883789 -1.24008789 -68.80126953 -1.36376953 C-46.12083834 -4.93872122 -22.54633339 -3.91728433 0 0 Z M-138 28 C-139.15628906 28.60070312 -140.31257813 29.20140625 -141.50390625 29.8203125 C-169.55180294 44.58933484 -194.17517471 65.48872236 -213 91 C-213.42764648 91.57218262 -213.85529297 92.14436523 -214.29589844 92.73388672 C-233.93569638 119.08630295 -247.55943461 148.71536447 -254 181 C-254.16790039 181.83998535 -254.33580078 182.6799707 -254.50878906 183.54541016 C-257.54333126 199.40778983 -258.71694267 215.86182932 -258 232 C-257.96422852 232.82838379 -257.92845703 233.65676758 -257.89160156 234.51025391 C-255.40389279 284.07376554 -236.17099801 332.03803079 -203 369 C-202.3920459 369.67949707 -201.7840918 370.35899414 -201.15771484 371.05908203 C-194.79682327 378.11952177 -188.39199841 385.00580708 -181 391 C-179.82860656 391.99382535 -178.65813057 392.9887325 -177.48828125 393.984375 C-168.77671339 401.31947222 -159.88790202 407.3842229 -150 413 C-148.43574099 413.99724621 -146.8730613 414.99697724 -145.3125 416 C-126.86429894 427.05050313 -105.79995276 434.02160548 -85 439 C-84.31534668 439.16951172 -83.63069336 439.33902344 -82.92529297 439.51367188 C-69.02055666 442.81103495 -55.44777887 443.37277112 -41.21728516 443.37060547 C-38.03362496 443.37495407 -34.85138294 443.4113151 -31.66796875 443.44921875 C-17.69672728 443.52549117 -4.62941314 442.02560389 9 439 C9.89192551 438.80557312 10.78385101 438.61114624 11.70280457 438.41082764 C24.72022561 435.55467712 36.80641121 431.36786901 49 426 C49.8245166 425.6385791 50.6490332 425.2771582 51.49853516 424.90478516 C62.30063855 420.11491346 72.29028595 414.7209018 82 408 C82.66741211 407.54753906 83.33482422 407.09507812 84.02246094 406.62890625 C102.66160703 393.99161657 119.0087688 379.73764352 133 362 C133.59506348 361.27651367 134.19012695 360.55302734 134.80322266 359.80761719 C139.62765179 353.90219082 143.93553279 347.82440727 148 341.375 C148.60521484 340.417146 149.21042969 339.45929199 149.83398438 338.47241211 C154.77484071 330.55075781 159.19995853 322.52625793 163 314 C163.79277344 312.22882813 163.79277344 312.22882813 164.6015625 310.421875 C168.737005 300.62405738 171.59209941 290.53191899 174.37451172 280.28320312 C174.88836684 278.40749154 175.42709595 276.53861145 175.97265625 274.671875 C190.44142896 224.94001302 181.08681341 165.64321393 156.70361328 120.60546875 C154.29548236 116.3235581 151.7950408 112.10117893 149.19726562 107.93164062 C148.33705058 106.5437896 147.49395884 105.14527062 146.66210938 103.74023438 C146.22189453 103.00611328 145.78167969 102.27199219 145.328125 101.515625 C144.93012695 100.84305664 144.53212891 100.17048828 144.12207031 99.47753906 C143.75178711 98.98995117 143.38150391 98.50236328 143 98 C142.34 98 141.68 98 141 98 C140.75378906 97.28199219 140.50757813 96.56398438 140.25390625 95.82421875 C137.89710705 90.51591401 133.75764913 86.3750196 130 82 C129.31808594 81.20464844 128.63617188 80.40929687 127.93359375 79.58984375 C106.02476842 54.68778232 80.45075692 35.34730617 50 22 C48.27716797 21.24396484 48.27716797 21.24396484 46.51953125 20.47265625 C-12.33125632 -4.15192412 -81.48636777 -1.99649434 -138 28 Z " fill="#242328" transform="translate(288,25)"/>
<path d="M0 0 C4.95 0 9.9 0 15 0 C15 19.47 15 38.94 15 59 C25.3640625 59.0928125 25.3640625 59.0928125 35.9375 59.1875 C38.10046631 59.23543701 40.26343262 59.28337402 42.49194336 59.33276367 C52.38834658 59.56030004 52.38834658 59.56030004 61.17626953 55.71728516 C63.45425852 52.92415622 65.23303625 50.1354391 67 47 C68.02706592 45.72072604 69.08590684 44.4656886 70.1875 43.25 C70.65349609 42.71052734 71.11949219 42.17105469 71.59960938 41.61523438 C72.29280273 40.81569336 72.29280273 40.81569336 73 40 C76.55575301 35.8764081 80.06796285 31.72787185 83.5 27.5 C84.20769531 26.63632813 84.91539062 25.77265625 85.64453125 24.8828125 C86.92062596 23.32102495 88.19432583 21.75720687 89.45458984 20.18261719 C91.01783421 18.23456667 92.60106255 16.30418628 94.1875 14.375 C94.67476563 13.75818359 95.16203125 13.14136719 95.6640625 12.50585938 C98.90282139 8.61320473 100.79170519 7.49531334 106 7 C107.23290201 4.54295238 107.23290201 4.54295238 108 2 C110.84214068 1.05261977 112.67608391 0.86539441 115.625 0.875 C116.81996094 0.87113281 116.81996094 0.87113281 118.0390625 0.8671875 C120 1 120 1 121 2 C121.35954837 5.06918829 121.29223785 6.55563833 119.57421875 9.16796875 C118.95160156 9.83441406 118.32898438 10.50085938 117.6875 11.1875 C117.07261719 11.86167969 116.45773437 12.53585938 115.82421875 13.23046875 C114 15 114 15 111 17 C109.98812105 18.65948148 108.9902283 20.32750914 108 22 C106.31972217 24.07693358 104.62434901 26.10876002 102.875 28.125 C101.88206095 29.28321028 100.88988395 30.44207427 99.8984375 31.6015625 C99.40698242 32.17551758 98.91552734 32.74947266 98.40917969 33.34082031 C96.40556927 35.6998876 94.45143537 38.09769148 92.5 40.5 C88.25904934 45.70965702 83.92778392 50.83826473 79.578125 55.95703125 C78.72734375 56.96121094 77.8765625 57.96539062 77 59 C76.27006836 59.78189697 76.27006836 59.78189697 75.52539062 60.57958984 C72.82878286 63.39560467 72.82878286 63.39560467 71.921875 67.0390625 C73.41917938 69.76242046 75.24268069 72.0021093 77.25 74.375 C78.05824219 75.34050781 78.86648438 76.30601562 79.69921875 77.30078125 C81.03151029 78.86379221 82.36615963 80.4248122 83.70703125 81.98046875 C87 85.82384726 87 85.82384726 87 88 C88.485 88.495 88.485 88.495 90 89 C93 92.44444444 93 92.44444444 93 95 C93.66 95 94.32 95 95 95 C98 98.46153846 98 98.46153846 98 101 C98.66 101 99.32 101 100 101 C101.47769218 102.63432755 102.88269319 104.33476368 104.25 106.0625 C108.08864743 110.86885195 108.08864743 110.86885195 112.0625 115.5625 C114.50772852 118.39814315 116.88977629 121.28065357 119.25 124.1875 C119.91515625 125.00605469 120.5803125 125.82460938 121.265625 126.66796875 C122.80491052 128.73768374 123.888337 130.68809407 125 133 C121.9553906 133.18991128 118.92268634 133.32801567 115.875 133.4375 C114.59109375 133.52547852 114.59109375 133.52547852 113.28125 133.61523438 C107.03066774 133.78351928 107.03066774 133.78351928 104.24169922 131.66333008 C102.67453511 129.85274026 101.33617616 127.98626696 100 126 C99.05733848 124.79200271 98.10688066 123.59004574 97.1484375 122.39453125 C95.75112798 120.59490649 94.35884964 118.79152696 92.96875 116.98632812 C90.95903445 114.40038058 89.0027743 112.00273254 86.6640625 109.69921875 C85 108 85 108 85 106 C84.34 106 83.68 106 83 106 C81.23773336 103.90937941 79.57891213 101.80758005 77.9375 99.625 C73.22440572 93.48195073 68.23482252 87.70690071 63 82 C58 76.3793911 58 76.3793911 58 74 C43.81 74 29.62 74 15 74 C15 93.47 15 112.94 15 133 C10.05 133 5.1 133 0 133 C0 89.11 0 45.22 0 0 Z " fill="#C6CFD0" transform="translate(273,153)"/>
<path d="M0 0 C4.90280645 1.62471169 8.77204757 4.40773822 12.9375 7.375 C14.0505249 8.16269775 14.0505249 8.16269775 15.18603516 8.96630859 C21.50904062 13.50974515 27.41717169 18.44228784 33.2421875 23.6015625 C35.94659536 26.05645382 35.94659536 26.05645382 39 28 C39 28.66 39 29.32 39 30 C39.66 30 40.32 30 41 30 C41 30.66 41 31.32 41 32 C41.56589844 32.23203125 42.13179687 32.4640625 42.71484375 32.703125 C51.66038644 37.77991162 58.61104258 49.36566093 64.83251953 57.48144531 C65.79403941 58.7321048 66.76836005 59.97291228 67.74609375 61.2109375 C72.35605203 67.13267253 76.17065004 73.557024 80 80 C80.67417969 81.12921875 81.34835937 82.2584375 82.04296875 83.421875 C93.406748 102.70686072 100.89242228 123.22159929 106 145 C106.20061035 145.82443604 106.4012207 146.64887207 106.60791016 147.49829102 C113.53604759 177.43062325 113.47601121 214.19012466 106 244 C105.61400635 245.57442871 105.61400635 245.57442871 105.22021484 247.18066406 C102.05704785 259.80738924 98.36609032 272.12342159 93 284 C92.52506104 285.07677002 92.52506104 285.07677002 92.04052734 286.17529297 C80.31623528 312.62311459 63.82477044 335.04974166 44 356 C43.36191406 356.680625 42.72382813 357.36125 42.06640625 358.0625 C37.11832846 363.1885662 31.57567323 367.57990672 26 372 C25.48630859 372.41185547 24.97261719 372.82371094 24.44335938 373.24804688 C16.62783906 379.50239051 8.61909108 384.88867855 0 390 C-0.77085937 390.49886719 -1.54171875 390.99773437 -2.3359375 391.51171875 C-24.771501 405.87835152 -51.63894705 413.39388576 -77.5625 418.25 C-78.4911084 418.4255542 -79.4197168 418.6011084 -80.37646484 418.78198242 C-85.33572811 419.67364157 -89.961958 420.19350504 -95 420 C-94.67 419.01 -94.34 418.02 -94 417 C-94.66 416.34 -95.32 415.68 -96 415 C-91.14785836 413.19072685 -86.63601948 411.86164599 -81.5 411.1875 C-63.22827321 408.55893579 -45.82311462 403.54163241 -29 396 C-28.18273437 395.6400293 -27.36546875 395.28005859 -26.5234375 394.90917969 C-15.71224199 390.1178544 -5.71714678 384.72604661 4 378 C4.66741211 377.54753906 5.33482422 377.09507812 6.02246094 376.62890625 C24.28514053 364.24685982 40.26427485 350.35980898 54 333 C54.59651367 332.27506348 55.19302734 331.55012695 55.80761719 330.80322266 C60.6305211 324.89940311 64.9367143 318.82253248 69 312.375 C69.60521484 311.417146 70.21042969 310.45929199 70.83398438 309.47241211 C75.77484071 301.55075781 80.19995853 293.52625793 84 285 C84.52851563 283.81921875 85.05703125 282.6384375 85.6015625 281.421875 C89.737005 271.62405738 92.59209941 261.53191899 95.37451172 251.28320312 C95.88836684 249.40749154 96.42709595 247.53861145 96.97265625 245.671875 C111.4507424 195.90800098 102.06286163 136.64227021 77.6875 91.57324219 C74.25351738 85.45646065 70.68364118 79.42910455 66.70703125 73.6484375 C65 71 65 71 65 69 C64.34 69 63.68 69 63 69 C61.66015625 67.26953125 61.66015625 67.26953125 60.0625 64.8125 C44.47455677 42.05219025 23.71739815 24.28329942 1 9 C1.33 7.35 1.66 5.7 2 4 C1.01 3.505 1.01 3.505 0 3 C0 2.01 0 1.02 0 0 Z " fill="#1A181B" transform="translate(366,54)"/>
<path d="M0 0 C2.47923801 -0.02685095 4.9581884 -0.04676547 7.4375 -0.0625 C8.14455078 -0.07087891 8.85160156 -0.07925781 9.58007812 -0.08789062 C11.38693559 -0.09653588 13.19387603 -0.05220011 15 0 C16.59861159 1.59861159 16.14606468 3.28557942 16.1673584 5.50146484 C16.17884918 6.47428909 16.19033997 7.44711334 16.20217896 8.44941711 C16.21328201 10.06386971 16.21328201 10.06386971 16.22460938 11.7109375 C16.23599945 12.83779465 16.24738953 13.96465179 16.25912476 15.12565613 C16.35683975 25.54362165 16.40810609 35.96218384 16.44481659 46.38053894 C16.47234107 54.07815808 16.52298463 61.77485064 16.60529089 69.47208405 C16.66797937 75.54132712 16.69205762 81.61020409 16.70307922 87.67974854 C16.71348074 90.25693379 16.73590667 92.83410007 16.77067566 95.41107178 C16.816917 99.02609063 16.8188761 102.6386568 16.81054688 106.25390625 C16.83414276 107.31401413 16.85773865 108.37412201 16.88204956 109.46635437 C16.79552715 117.24774255 14.41188648 121.48124607 9 127 C2.86207874 132.69949832 -2.4760251 133.29868058 -10.52856445 133.29052734 C-11.48204773 133.29724457 -12.43553101 133.30396179 -13.41790771 133.31088257 C-16.56641875 133.32986237 -19.71471658 133.33378687 -22.86328125 133.3359375 C-25.05657539 133.34236575 -27.24986867 133.34909413 -29.44316101 133.35610962 C-34.0404967 133.36808257 -38.63775724 133.37179045 -43.23510742 133.37060547 C-49.11627713 133.37040235 -54.99696322 133.39769705 -60.87801838 133.43214989 C-65.40858661 133.45442545 -69.93903861 133.45844279 -74.46965599 133.45738602 C-76.63731743 133.45974126 -78.80498212 133.46856044 -80.97258949 133.48405075 C-84.00981792 133.50372219 -87.04600553 133.49786759 -90.08325195 133.48583984 C-90.97235764 133.49707886 -91.86146332 133.50831787 -92.7775116 133.51989746 C-99.7806972 133.44968776 -104.88723971 131.5501499 -110.3125 127.10546875 C-114.91693449 121.87218789 -114.91693449 121.87218789 -115.375 117.0625 C-115.25125 116.051875 -115.1275 115.04125 -115 114 C-115.33 113.67 -115.66 113.34 -116 113 C-116.203125 110.78515625 -116.203125 110.78515625 -116.25 108.0625 C-116.27578125 107.16660156 -116.3015625 106.27070313 -116.328125 105.34765625 C-116.21984375 104.57292969 -116.1115625 103.79820312 -116 103 C-112.57905758 100.71937172 -111.31812778 100.78074993 -107.3125 100.875 C-106.31863281 100.89304687 -105.32476562 100.91109375 -104.30078125 100.9296875 C-103.54152344 100.95289063 -102.78226563 100.97609375 -102 101 C-101.96132812 102.22976562 -101.96132812 102.22976562 -101.921875 103.484375 C-101.83679688 105.10085938 -101.83679688 105.10085938 -101.75 106.75 C-101.68039063 108.35101563 -101.68039063 108.35101563 -101.609375 109.984375 C-100.84717727 113.75627659 -100.10185423 114.73240898 -97 117 C-94.02068392 117.59100717 -91.08544575 117.53614039 -88.05639648 117.50170898 C-87.15354919 117.50711197 -86.2507019 117.51251495 -85.32049561 117.51808167 C-82.33702793 117.53058632 -79.35452188 117.51406758 -76.37109375 117.49609375 C-74.29891408 117.49624868 -72.22673411 117.49773673 -70.15455627 117.50050354 C-65.81262394 117.50188827 -61.47102165 117.48931587 -57.12915039 117.46655273 C-51.55800732 117.43815035 -45.98741201 117.44090932 -40.41622829 117.45364285 C-36.13803918 117.4605903 -31.85997716 117.45282171 -27.58180428 117.44038582 C-25.52725779 117.43586348 -23.47269769 117.43554132 -21.41814995 117.43945122 C-18.54988394 117.44235471 -15.68237894 117.42589834 -12.81420898 117.40405273 C-11.96166031 117.40855438 -11.10911163 117.41305603 -10.23072815 117.41769409 C-6.01089069 117.46993603 -6.01089069 117.46993603 -2.28339005 115.76881027 C-0.6246882 113.48273297 -0.61674247 112.12378023 -0.60127258 109.31135559 C-0.58246536 107.86634926 -0.58246536 107.86634926 -0.5632782 106.39215088 C-0.56543083 104.80935333 -0.56543083 104.80935333 -0.56762695 103.19458008 C-0.5574353 102.08223495 -0.54724365 100.96988983 -0.53674316 99.82383728 C-0.50649552 96.13901815 -0.49732905 92.45445847 -0.48828125 88.76953125 C-0.47144334 86.2179019 -0.45329431 83.66628088 -0.43388367 81.1146698 C-0.39114945 75.07989564 -0.36166153 69.04519668 -0.33856028 63.01032704 C-0.31152286 56.13969126 -0.26761054 49.26919589 -0.22227156 42.3986603 C-0.12938705 28.26584974 -0.05772382 14.13299477 0 0 Z " fill="#CBD4D4" transform="translate(218,153)"/>
<path d="M0 0 C1.94335938 0.72265625 1.94335938 0.72265625 4 2 C4.66601562 3.99609375 4.66601562 3.99609375 4.90625 6.4375 C5.01066406 7.33339844 5.11507812 8.22929687 5.22265625 9.15234375 C5.31417969 10.09207031 5.40570313 11.03179687 5.5 12 C6.17627201 18.71509531 7.32190098 24.36055556 10.00537109 30.56982422 C11.27835677 33.68010881 12.09513178 36.82485142 12.92529297 40.07592773 C17.69725144 58.69753578 25.71925088 76.75881656 36 93 C36.54575684 93.87495117 36.54575684 93.87495117 37.10253906 94.76757812 C48.66070635 113.1942083 63.07406667 131.22637976 80 145 C81.17255948 145.99528792 82.34435544 146.99147566 83.515625 147.98828125 C92.22625608 155.3214022 101.11379258 161.38518533 111 167 C112.56425901 167.99724621 114.1269387 168.99697724 115.6875 170 C134.13570106 181.05050313 155.20004724 188.02160548 176 193 C176.68465332 193.16951172 177.36930664 193.33902344 178.07470703 193.51367188 C193.80680774 197.24437534 209.31326629 197.36010074 225.39208984 197.45629883 C228.41271945 197.47781059 231.43271297 197.51715873 234.453125 197.55859375 C235.38320374 197.55870956 236.31328247 197.55882538 237.27154541 197.5589447 C238.55493805 197.57895287 238.55493805 197.57895287 239.86425781 197.59936523 C240.61700989 197.60443588 241.36976196 197.60950653 242.14532471 197.61473083 C244 198 244 198 246 201 C244 204 244 204 242.1015625 204.51171875 C232.40453518 205.19999356 222.71467043 205.16002849 213 205 C212.26394531 204.99274902 211.52789062 204.98549805 210.76953125 204.97802734 C176.62684029 204.51258863 142.59143876 193.6145785 113 177 C112.07445312 176.52175781 111.14890625 176.04351562 110.1953125 175.55078125 C71.2274023 155.37303547 38.74706468 119.27336467 20 80 C19.484375 78.92621094 18.96875 77.85242188 18.4375 76.74609375 C11.40896164 61.82875321 6.16030802 46.93663798 2 31 C1.81775879 30.30390625 1.63551758 29.6078125 1.44775391 28.890625 C-1.02061441 19.2234631 -2.20379094 9.8281967 0 0 Z " fill="#28292D" transform="translate(27,270)"/>
<path d="M0 0 C0.66914429 -0.00241196 1.33828857 -0.00482391 2.02770996 -0.00730896 C3.43633985 -0.00633354 4.84500951 0.00698777 6.25341797 0.03198242 C8.40074807 0.06631827 10.54396249 0.05262699 12.69140625 0.03320312 C14.06512155 0.04010214 15.43882631 0.04977506 16.8125 0.0625 C18.05322266 0.07337646 19.29394531 0.08425293 20.57226562 0.09545898 C24.5967184 0.73938322 26.24065635 1.54272323 28.90625 4.62890625 C29.41763551 7.31956594 29.60998546 9.37545665 29.5703125 12.0625 C29.57509613 12.77745132 29.57987976 13.49240265 29.58480835 14.22901917 C29.58820325 15.7377442 29.57902896 17.24654319 29.55810547 18.75512695 C29.53136473 21.05653214 29.55783746 23.35304444 29.58984375 25.65429688 C29.5865388 27.12370862 29.58013078 28.59311734 29.5703125 30.0625 C29.58043365 30.74598007 29.59055481 31.42946014 29.60098267 32.13365173 C29.51244899 35.77029281 28.93847603 37.58376729 26.81030273 40.56469727 C23.1982541 43.13215176 21.18138055 43.24769374 16.77734375 43.22265625 C15.77006981 43.22271667 15.77006981 43.22271667 14.7424469 43.22277832 C13.32958565 43.21743968 11.91672349 43.19992723 10.50415039 43.17089844 C8.34624243 43.1289547 6.19145105 43.12983987 4.03320312 43.13671875 C-6.33481274 43.05772492 -6.33481274 43.05772492 -9.46850586 41.28710938 C-13.78970038 36.8782836 -12.39524552 29.23597551 -12.44384766 23.43261719 C-12.46041016 21.98356061 -12.48770506 20.53458585 -12.52587891 19.0859375 C-12.58081506 16.98785409 -12.60254062 14.89167562 -12.6171875 12.79296875 C-12.63700684 11.5395166 -12.65682617 10.28606445 -12.67724609 8.99462891 C-11.40378908 1.64907308 -6.89330007 -0.00402855 0 0 Z " fill="#222319" transform="translate(204.09375,301.37109375)"/>
<path d="M0 0 C5.671875 -0.061875 11.34375 -0.12375 17.1875 -0.1875 C19.86008911 -0.22846802 19.86008911 -0.22846802 22.58666992 -0.27026367 C24.00959598 -0.27903108 25.4325296 -0.28667442 26.85546875 -0.29296875 C27.95066833 -0.3159906 27.95066833 -0.3159906 29.06799316 -0.33947754 C33.56401234 -0.34177338 36.43146785 0.20788134 40 3 C41.69933426 6.39866852 41.31049701 10.12796249 41.375 13.875 C41.43107422 15.09896484 41.43107422 15.09896484 41.48828125 16.34765625 C41.57635207 22.3462579 41.57635207 22.3462579 38.7890625 25.5078125 C36.10317416 26.94480038 34.01193406 27.65577896 31 28 C31.721875 28.84304688 32.44375 29.68609375 33.1875 30.5546875 C34.12525692 31.66124066 35.06274294 32.76802342 36 33.875 C36.47695313 34.43058594 36.95390625 34.98617187 37.4453125 35.55859375 C41 39.7734375 41 39.7734375 41 42 C38.08314916 42.62060656 36.80368236 42.84774366 34 42 C30.01271004 38.48063993 26.3163623 34.39487721 23.74609375 29.71875 C20.94115469 26.95773616 17.54280649 27.32167401 13.8125 27.25 C12.68811523 27.20552734 12.68811523 27.20552734 11.54101562 27.16015625 C9.69458693 27.0895921 7.84728739 27.04251524 6 27 C6 31.95 6 36.9 6 42 C4.02 42 2.04 42 0 42 C0 28.14 0 14.28 0 0 Z " fill="#CBD2D4" transform="translate(245,302)"/>
<path d="M0 0 C1.98 0 3.96 0 6 0 C9.1212866 6.60272165 11.59885114 13.33921698 13.98095703 20.23413086 C15.32091508 24.18615485 15.32091508 24.18615485 17 28 C17.38671875 26.90042969 17.7734375 25.80085938 18.171875 24.66796875 C21.07247913 16.42969341 23.98957818 8.19897237 27 0 C29.64 0 32.28 0 35 0 C36.50776616 4.10135565 38.00487576 8.20652067 39.5 12.3125 C39.92925781 13.47974609 40.35851562 14.64699219 40.80078125 15.84960938 C41.20683594 16.96787109 41.61289063 18.08613281 42.03125 19.23828125 C42.59682617 20.7857605 42.59682617 20.7857605 43.17382812 22.36450195 C44 25 44 25 44 28 C44.66 28 45.32 28 46 28 C46.11730469 27.14019531 46.23460937 26.28039062 46.35546875 25.39453125 C48.02960582 16.57740936 52.24483358 8.11871175 56 0 C57.98 0 59.96 0 62 0 C59.9755518 6.87555412 57.82747726 13.7000461 55.5625 20.5 C55.27568359 21.37269531 54.98886719 22.24539063 54.69335938 23.14453125 C52.68204824 29.19190326 50.42923721 35.10844716 48 41 C46.02 41 44.04 41 42 41 C33.86906361 19.79114974 33.86906361 19.79114974 32 10 C31.34 10 30.68 10 30 10 C29.82549316 10.5993335 29.65098633 11.19866699 29.47119141 11.81616211 C27.60861011 18.12878599 25.55709313 24.35370536 23.375 30.5625 C23.06304687 31.46291016 22.75109375 32.36332031 22.4296875 33.29101562 C22.130625 34.14501953 21.8315625 34.99902344 21.5234375 35.87890625 C21.25450684 36.6479126 20.98557617 37.41691895 20.70849609 38.20922852 C20 40 20 40 19 41 C17.33382885 41.04063832 15.66611905 41.042721 14 41 C10.13790433 30.42718118 6.27943523 19.85270308 2.5 9.25 C2.11787354 8.18857788 2.11787354 8.18857788 1.72802734 7.10571289 C0 2.23223984 0 2.23223984 0 0 Z " fill="#A2AAAB" transform="translate(119,303)"/>
<path d="M0 0 C0.66914429 -0.00241196 1.33828857 -0.00482391 2.02770996 -0.00730896 C3.43633985 -0.00633354 4.84500951 0.00698777 6.25341797 0.03198242 C8.40074807 0.06631827 10.54396249 0.05262699 12.69140625 0.03320312 C14.06512155 0.04010214 15.43882631 0.04977506 16.8125 0.0625 C18.05322266 0.07337646 19.29394531 0.08425293 20.57226562 0.09545898 C24.5967184 0.73938322 26.24065635 1.54272323 28.90625 4.62890625 C29.41763551 7.31956594 29.60998546 9.37545665 29.5703125 12.0625 C29.57509613 12.77745132 29.57987976 13.49240265 29.58480835 14.22901917 C29.58820325 15.7377442 29.57902896 17.24654319 29.55810547 18.75512695 C29.53136473 21.05653214 29.55783746 23.35304444 29.58984375 25.65429688 C29.5865388 27.12370862 29.58013078 28.59311734 29.5703125 30.0625 C29.58043365 30.74598007 29.59055481 31.42946014 29.60098267 32.13365173 C29.51244899 35.77029281 28.93847603 37.58376729 26.81030273 40.56469727 C23.1982541 43.13215176 21.18138055 43.24769374 16.77734375 43.22265625 C15.77006981 43.22271667 15.77006981 43.22271667 14.7424469 43.22277832 C13.32958565 43.21743968 11.91672349 43.19992723 10.50415039 43.17089844 C8.34624243 43.1289547 6.19145105 43.12983987 4.03320312 43.13671875 C-6.33481274 43.05772492 -6.33481274 43.05772492 -9.46850586 41.28710938 C-13.78970038 36.8782836 -12.39524552 29.23597551 -12.44384766 23.43261719 C-12.46041016 21.98356061 -12.48770506 20.53458585 -12.52587891 19.0859375 C-12.58081506 16.98785409 -12.60254062 14.89167562 -12.6171875 12.79296875 C-12.63700684 11.5395166 -12.65682617 10.28606445 -12.67724609 8.99462891 C-11.40378908 1.64907308 -6.89330007 -0.00402855 0 0 Z M-6.09375 7.62890625 C-6.09375 17.19890625 -6.09375 26.76890625 -6.09375 36.62890625 C3.47625 36.62890625 13.04625 36.62890625 22.90625 36.62890625 C22.90625 27.05890625 22.90625 17.48890625 22.90625 7.62890625 C13.33625 7.62890625 3.76625 7.62890625 -6.09375 7.62890625 Z " fill="#C0C8C7" transform="translate(204.09375,301.37109375)"/>
<path d="M0 0 C0.71636627 -0.00619858 1.43273254 -0.01239716 2.17080688 -0.01878357 C3.68547203 -0.02588224 5.20021519 -0.02270667 6.71484375 -0.01000977 C9.02491265 0.00382153 11.33090074 -0.03015971 13.640625 -0.06835938 C15.11458432 -0.06931099 16.58854868 -0.06744947 18.0625 -0.0625 C19.09242569 -0.08238731 19.09242569 -0.08238731 20.14315796 -0.10267639 C23.93694757 -0.02959581 25.59956593 0.51677681 28.63916016 2.85571289 C30.6640625 5.56640625 30.6640625 5.56640625 30.6640625 9.56640625 C28.6840625 9.56640625 26.7040625 9.56640625 24.6640625 9.56640625 C24.6640625 8.57640625 24.6640625 7.58640625 24.6640625 6.56640625 C15.0940625 6.56640625 5.5240625 6.56640625 -4.3359375 6.56640625 C-4.3359375 10.19640625 -4.3359375 13.82640625 -4.3359375 17.56640625 C-3.01203003 17.52713013 -3.01203003 17.52713013 -1.66137695 17.48706055 C1.6281783 17.4016035 4.91654672 17.3390488 8.20678711 17.29174805 C9.62787541 17.26667478 11.04883563 17.23260626 12.46948242 17.18920898 C14.51773712 17.12822767 16.56428133 17.10012863 18.61328125 17.078125 C19.84393311 17.05194092 21.07458496 17.02575684 22.3425293 16.9987793 C26.59158283 17.72491303 28.03735126 19.21886518 30.6640625 22.56640625 C31.22265625 25.7578125 31.22265625 25.7578125 31.1015625 29.12890625 C31.07964844 30.24394531 31.05773437 31.35898437 31.03515625 32.5078125 C30.68444992 35.39837103 30.25731388 37.15668441 28.6640625 39.56640625 C25.63078486 41.08304507 22.46657651 40.77071196 19.13671875 40.8046875 C18.39199814 40.81275925 17.64727753 40.82083099 16.87998962 40.82914734 C15.30388718 40.84298176 13.72775486 40.8537068 12.15161133 40.86157227 C9.73917212 40.87881612 7.32809279 40.92270806 4.91601562 40.96679688 C3.38542675 40.97692129 1.85482623 40.98543818 0.32421875 40.9921875 C-0.39773178 41.00969559 -1.11968231 41.02720367 -1.86351013 41.04524231 C-5.13667107 41.03103531 -6.86938796 41.00631898 -9.30297852 38.71166992 C-10.52933275 36.1647603 -10.5687333 34.35995591 -10.3359375 31.56640625 C-8.3559375 31.56640625 -6.3759375 31.56640625 -4.3359375 31.56640625 C-4.3359375 32.88640625 -4.3359375 34.20640625 -4.3359375 35.56640625 C5.2340625 35.56640625 14.8040625 35.56640625 24.6640625 35.56640625 C24.6640625 31.60640625 24.6640625 27.64640625 24.6640625 23.56640625 C23.23356567 23.59782715 23.23356567 23.59782715 21.77416992 23.62988281 C18.23526022 23.70229393 14.69641594 23.74820896 11.15698242 23.78613281 C9.62529488 23.80624605 8.09368411 23.83354075 6.56225586 23.86816406 C4.36032177 23.9166994 2.15940268 23.93937621 -0.04296875 23.95703125 C-0.72744583 23.97767639 -1.41192291 23.99832153 -2.11714172 24.01959229 C-5.27959375 24.02108416 -6.90936271 23.96488072 -9.2668457 21.76269531 C-10.85371244 18.50271515 -10.73221287 15.66903541 -10.7109375 12.06640625 C-10.71867187 10.75671875 -10.72640625 9.44703125 -10.734375 8.09765625 C-9.92251449 0.90234349 -6.70111791 -0.04812267 0 0 Z " fill="#8A9393" transform="translate(359.3359375,302.43359375)"/>
<path d="M0 0 C1.98 0 3.96 0 6 0 C6 5.61 6 11.22 6 17 C13.77778152 17.40482006 13.77778152 17.40482006 20.28515625 13.9296875 C22.14325958 11.47858987 22.14325958 11.47858987 23.6953125 8.93359375 C24.12585938 8.29550781 24.55640625 7.65742188 25 7 C25.66 7 26.32 7 27 7 C27.28875 6.401875 27.5775 5.80375 27.875 5.1875 C29 3 29 3 31 0 C32.9453125 -0.29296875 32.9453125 -0.29296875 35.125 -0.1875 C36.40375 -0.125625 37.6825 -0.06375 39 0 C36.24331439 5.03353856 32.59337978 9.04576632 28.76367188 13.27148438 C25.45709583 17.02083993 25.45709583 17.02083993 25 22 C26.2876993 23.91039036 26.2876993 23.91039036 28 25.625 C31 28.80555556 31 28.80555556 31 31 C31.66 31 32.32 31 33 31 C34.5078125 32.6796875 34.5078125 32.6796875 36.125 34.875 C36.66382813 35.59429687 37.20265625 36.31359375 37.7578125 37.0546875 C39 39 39 39 39 41 C33.07366038 41.81254216 33.07366038 41.81254216 30.32958984 39.73583984 C28.67750528 37.95204129 27.17250397 36.11250515 25.6875 34.1875 C25.16349609 33.54490234 24.63949219 32.90230469 24.09960938 32.24023438 C21.9292028 29.55849002 19.91549529 26.87324293 18 24 C15.11404054 23.41518879 15.11404054 23.41518879 11.875 23.3125 C9.93625 23.209375 7.9975 23.10625 6 23 C6 28.94 6 34.88 6 41 C4.02 41 2.04 41 0 41 C0 27.47 0 13.94 0 0 Z " fill="#C3C9CB" transform="translate(298,303)"/>
<path d="M0 0 C0 0.99 0 1.98 0 3 C-0.66 3.33 -1.32 3.66 -2 4 C-2.2165625 5.10214844 -2.433125 6.20429688 -2.65625 7.33984375 C-4 11 -4 11 -7.28125 13.00390625 C-8.67635907 13.55265252 -10.08389175 14.07047439 -11.5 14.5625 C-12.25901611 14.84786621 -13.01803223 15.13323242 -13.80004883 15.42724609 C-16.19051952 16.31406134 -18.59327119 17.15845551 -21 18 C-22.45204174 18.53195515 -23.90387111 19.06449041 -25.35546875 19.59765625 C-42.45022608 25.71632972 -62.67970686 31.85210666 -81 31 C-80.67 30.01 -80.34 29.02 -80 28 C-80.66 27.34 -81.32 26.68 -82 26 C-77.14785836 24.19072685 -72.63601948 22.86164599 -67.5 22.1875 C-43.44576747 18.72706655 -21.73306638 10.53724431 0 0 Z " fill="#1E1E22" transform="translate(352,443)"/>
<path d="M0 0 C9.57 0 19.14 0 29 0 C29 4.62 29 9.24 29 14 C25.0306345 14.02291487 21.0614368 14.04284015 17.09204102 14.05493164 C15.74079614 14.05997057 14.38955674 14.06680177 13.03833008 14.07543945 C11.09979566 14.08752419 9.161222 14.09269828 7.22265625 14.09765625 C5.47094116 14.10551147 5.47094116 14.10551147 3.68383789 14.11352539 C1 14 1 14 0 13 C0 8.71 0 4.42 0 0 Z " fill="#22231C" transform="translate(251,309)"/>
<path d="M0 0 C1.98 0 3.96 0 6 0 C9.1212866 6.60272165 11.59885114 13.33921698 13.98095703 20.23413086 C15.32091508 24.18615485 15.32091508 24.18615485 17 28 C18.65 23.05 20.3 18.1 22 13 C22.66 14.32 23.32 15.64 24 17 C25.32 16.67 26.64 16.34 28 16 C21.67202572 38.32797428 21.67202572 38.32797428 19 41 C17.33382885 41.04063832 15.66611905 41.042721 14 41 C10.13790433 30.42718118 6.27943523 19.85270308 2.5 9.25 C2.11787354 8.18857788 2.11787354 8.18857788 1.72802734 7.10571289 C0 2.23223984 0 2.23223984 0 0 Z " fill="#899493" transform="translate(119,303)"/>
<path d="M0 0 C0.71636627 -0.00619858 1.43273254 -0.01239716 2.17080688 -0.01878357 C3.68547203 -0.02588224 5.20021519 -0.02270667 6.71484375 -0.01000977 C9.02491265 0.00382153 11.33090074 -0.03015971 13.640625 -0.06835938 C15.11458432 -0.06931099 16.58854868 -0.06744947 18.0625 -0.0625 C19.09242569 -0.08238731 19.09242569 -0.08238731 20.14315796 -0.10267639 C23.93694757 -0.02959581 25.59956593 0.51677681 28.63916016 2.85571289 C30.6640625 5.56640625 30.6640625 5.56640625 30.6640625 9.56640625 C28.6840625 9.56640625 26.7040625 9.56640625 24.6640625 9.56640625 C24.6640625 8.57640625 24.6640625 7.58640625 24.6640625 6.56640625 C15.0940625 6.56640625 5.5240625 6.56640625 -4.3359375 6.56640625 C-4.39927919 17.495387 -4.39927919 17.495387 -1.3359375 21.56640625 C-4.20971557 22.4445051 -5.71428492 22.86081367 -8.48046875 21.55078125 C-11.17588749 18.66810184 -10.88453553 15.8668175 -10.7734375 12.12890625 C-10.77214844 10.81019531 -10.77085937 9.49148438 -10.76953125 8.1328125 C-9.89371514 0.92902776 -6.74437335 -0.0484333 0 0 Z " fill="#9FA7A9" transform="translate(359.3359375,302.43359375)"/>
<path d="M0 0 C3.91652632 -0.08714316 7.83280311 -0.14043985 11.75 -0.1875 C12.86117187 -0.21263672 13.97234375 -0.23777344 15.1171875 -0.26367188 C16.18710938 -0.27333984 17.25703125 -0.28300781 18.359375 -0.29296875 C19.34389648 -0.3086792 20.32841797 -0.32438965 21.34277344 -0.34057617 C24.57653076 0.07389383 25.8636353 0.51562314 28 3 C28.36942247 5.62395505 28.49125951 7.82319867 28.42578125 10.44140625 C28.42249313 11.16488754 28.41920502 11.88836884 28.41581726 12.6337738 C28.40540408 14.16113293 28.3854667 15.68845266 28.35668945 17.21557617 C28.31259698 19.55734914 28.29525191 21.89809761 28.28320312 24.24023438 C28.26977947 25.72397317 28.25485661 27.20769932 28.23828125 28.69140625 C28.23089432 29.39350723 28.22350739 30.09560822 28.21589661 30.81898499 C28.11839291 35.76321418 28.11839291 35.76321418 27 38 C26.20335937 37.84660156 25.40671875 37.69320312 24.5859375 37.53515625 C20.26552585 36.89038893 15.98462602 36.64957112 11.625 36.4375 C10.79355469 36.39431641 9.96210938 36.35113281 9.10546875 36.30664062 C7.07046772 36.20138195 5.03525297 36.10026928 3 36 C3 35.67 3 35.34 3 35 C9.27 35 15.54 35 22 35 C22 25.1 22 15.2 22 5 C16.06 5 10.12 5 4 5 C4.33 3.68 4.66 2.36 5 1 C3.35 1 1.7 1 0 1 C0 0.67 0 0.34 0 0 Z " fill="#CBD4D4" transform="translate(205,303)"/>
<path d="M0 0 C11.55 0 23.1 0 35 0 C35 0.33 35 0.66 35 1 C24.44 1 13.88 1 3 1 C3.33 3.31 3.66 5.62 4 8 C4.66 8 5.32 8 6 8 C6.33 11.96 6.66 15.92 7 20 C20.86 20.495 20.86 20.495 35 21 C35 21.33 35 21.66 35 22 C25.76 22.33 16.52 22.66 7 23 C6.12844004 27.35779981 5.89633141 30.90746106 5.9375 35.3125 C5.94652344 36.56675781 5.95554688 37.82101562 5.96484375 39.11328125 C5.97644531 40.06589844 5.98804688 41.01851563 6 42 C4.02 42 2.04 42 0 42 C0 28.14 0 14.28 0 0 Z " fill="#C3CACA" transform="translate(245,302)"/>
<path d="M0 0 C9.57 0 19.14 0 29 0 C29 3.3 29 6.6 29 10 C19.76 10 10.52 10 1 10 C1 9.01 1 8.02 1 7 C0.01 6.67 -0.98 6.34 -2 6 C-1.34 4.02 -0.68 2.04 0 0 Z " fill="#140F08" transform="translate(354,327)"/>
<path d="M0 0 C0.33 0 0.66 0 1 0 C1.33 5.94 1.66 11.88 2 18 C4.41957031 18.10957031 6.83914062 18.21914063 9.33203125 18.33203125 C11.67540087 18.44785524 14.01847311 18.56853913 16.36157227 18.68969727 C17.98990596 18.77128426 19.61850105 18.8478176 21.24731445 18.91918945 C23.58892554 19.02267425 25.92899422 19.14431333 28.26953125 19.26953125 C28.99775589 19.29779495 29.72598053 19.32605865 30.47627258 19.35517883 C35.55384196 19.65226806 35.55384196 19.65226806 37.9831543 21.5456543 C38.31871338 22.02558838 38.65427246 22.50552246 39 23 C34.1366506 26.24223293 28.43983442 25.33301482 22.7487793 25.31567383 C20.57354536 25.31251603 18.39967498 25.33597082 16.22460938 25.36132812 C14.83854338 25.3636015 13.45247373 25.36430444 12.06640625 25.36328125 C10.80771729 25.36626221 9.54902832 25.36924316 8.25219727 25.37231445 C4.78987405 24.97594459 3.40693569 24.47219378 1 22 C0.05862745 19.17588235 -0.11725382 17.47081968 -0.09765625 14.55078125 C-0.09443359 13.70322266 -0.09121094 12.85566406 -0.08789062 11.98242188 C-0.07951172 11.10134766 -0.07113281 10.22027344 -0.0625 9.3125 C-0.05798828 8.41982422 -0.05347656 7.52714844 -0.04882812 6.60742188 C-0.03704983 4.40488013 -0.02060164 2.20247401 0 0 Z " fill="#AEB5B5" transform="translate(192,319)"/>
<path d="M0 0 C11.22 0 22.44 0 34 0 C34 0.99 34 1.98 34 3 C31.25954592 5.74045408 29.61917469 5.29489443 25.78515625 5.37890625 C24.54185547 5.41306641 23.29855469 5.44722656 22.01757812 5.48242188 C20.05981445 5.52206055 20.05981445 5.52206055 18.0625 5.5625 C15.49079079 5.62236644 12.91916546 5.68598964 10.34765625 5.75390625 C8.63074585 5.78979858 8.63074585 5.78979858 6.87915039 5.82641602 C3.92996925 5.87969794 3.92996925 5.87969794 1 7 C0.67 4.69 0.34 2.38 0 0 Z " fill="#E3EAED" transform="translate(248,303)"/>
<path d="M0 0 C0.99 0.33 1.98 0.66 3 1 C3 2.32 3 3.64 3 5 C4.2876993 6.91039036 4.2876993 6.91039036 6 8.625 C9 11.80555556 9 11.80555556 9 14 C9.66 14 10.32 14 11 14 C12.5078125 15.6796875 12.5078125 15.6796875 14.125 17.875 C14.66382813 18.59429687 15.20265625 19.31359375 15.7578125 20.0546875 C17 22 17 22 17 24 C11.09375448 24.78849122 11.09375448 24.78849122 8.31347656 22.78417969 C6.63556394 21.05463899 5.12420255 19.2613384 3.625 17.375 C3.09261719 16.75753906 2.56023437 16.14007813 2.01171875 15.50390625 C-1.08652901 11.75920476 -2.70718582 9.00866361 -3 4 C-2.01 4.33 -1.02 4.66 0 5 C-0.2784375 4.0409375 -0.2784375 4.0409375 -0.5625 3.0625 C-0.706875 2.381875 -0.85125 1.70125 -1 1 C-0.67 0.67 -0.34 0.34 0 0 Z " fill="#A8AFB1" transform="translate(320,320)"/>
<path d="M0 0 C3.91652632 -0.08714316 7.83280311 -0.14043985 11.75 -0.1875 C12.86117187 -0.21263672 13.97234375 -0.23777344 15.1171875 -0.26367188 C16.18710938 -0.27333984 17.25703125 -0.28300781 18.359375 -0.29296875 C19.34389648 -0.3086792 20.32841797 -0.32438965 21.34277344 -0.34057617 C24.49817971 0.06385159 25.83661313 0.66980994 28 3 C28.45410156 5.36010742 28.45410156 5.36010742 28.390625 8.10546875 C28.37128906 9.57983398 28.37128906 9.57983398 28.3515625 11.08398438 C28.31804687 12.10814453 28.28453125 13.13230469 28.25 14.1875 C28.23195312 15.22326172 28.21390625 16.25902344 28.1953125 17.32617188 C28.14814437 19.88504284 28.08234057 22.44205842 28 25 C27.67 25 27.34 25 27 25 C27 19.39 27 13.78 27 8 C25.68 8.33 24.36 8.66 23 9 C22.67 8.01 22.34 7.02 22 6 C16.06 5.67 10.12 5.34 4 5 C4.33 3.68 4.66 2.36 5 1 C3.35 1 1.7 1 0 1 C0 0.67 0 0.34 0 0 Z " fill="#DCE5E6" transform="translate(205,303)"/>
<path d="M0 0 C1.0236264 0.00636726 1.0236264 0.00636726 2.06793213 0.01286316 C4.23840504 0.02959903 6.40793479 0.06723916 8.578125 0.10546875 C10.05337197 0.12052229 11.52863355 0.13420953 13.00390625 0.14648438 C16.61228344 0.17948498 20.2201121 0.23123108 23.828125 0.29296875 C23.828125 0.62296875 23.828125 0.95296875 23.828125 1.29296875 C17.888125 1.62296875 11.948125 1.95296875 5.828125 2.29296875 C5.498125 3.61296875 5.168125 4.93296875 4.828125 6.29296875 C10.768125 6.29296875 16.708125 6.29296875 22.828125 6.29296875 C22.828125 6.62296875 22.828125 6.95296875 22.828125 7.29296875 C12.928125 7.29296875 3.028125 7.29296875 -7.171875 7.29296875 C-7.171875 7.95296875 -7.171875 8.61296875 -7.171875 9.29296875 C-8.491875 9.29296875 -9.811875 9.29296875 -11.171875 9.29296875 C-11.421875 6.48046875 -11.421875 6.48046875 -11.171875 3.29296875 C-7.84672444 -0.27302215 -4.68797763 -0.05763907 0 0 Z " fill="#B3B9B9" transform="translate(204.171875,301.70703125)"/>
<path d="M0 0 C1.98 0 3.96 0 6 0 C3.84071065 7.39393019 1.4695482 14.70417741 -1 22 C-1.99 22 -2.98 22 -4 22 C-4 21.34 -4 20.68 -4 20 C-4.99 20.33 -5.98 20.66 -7 21 C-6.33844731 13.39214401 -3.4620342 6.7532954 0 0 Z " fill="#B6BCBD" transform="translate(175,303)"/>
<path d="M0 0 C8.91774892 -0.77922078 8.91774892 -0.77922078 13.125 2.25 C15 5 15 5 15 9 C13.02 9 11.04 9 9 9 C9 8.01 9 7.02 9 6 C-0.57 6 -10.14 6 -20 6 C-20 5.67 -20 5.34 -20 5 C-13.73 4.67 -7.46 4.34 -1 4 C-0.67 2.68 -0.34 1.36 0 0 Z " fill="#848C8B" transform="translate(375,303)"/>
<path d="M0 0 C0.66 0.66 1.32 1.32 2 2 C1.2575 2.70125 0.515 3.4025 -0.25 4.125 C-3.09191836 6.92478751 -3.09191836 6.92478751 -5.1875 10.3125 C-5.785625 11.199375 -6.38375 12.08625 -7 13 C-7.66 13 -8.32 13 -9 13 C-9 13.66 -9 14.32 -9 15 C-9.639375 15.495 -10.27875 15.99 -10.9375 16.5 C-14.04304301 20.26429456 -13.81867541 24.24929563 -14 29 C-15.65 29.66 -17.3 30.32 -19 31 C-19.33 30.01 -19.66 29.02 -20 28 C-20.66 28.33 -21.32 28.66 -22 29 C-22 30.32 -22 31.64 -22 33 C-23.65 33 -25.3 33 -27 33 C-18.60320024 21.50790935 -9.29073816 10.76845286 0 0 Z " fill="#A0A7A8" transform="translate(373,161)"/>
<path d="M0 0 C1.9453125 -0.29296875 1.9453125 -0.29296875 4.125 -0.1875 C5.40375 -0.125625 6.6825 -0.06375 8 0 C5.7757418 3.9374409 3.20149367 7.3373337 0.3125 10.8125 C-0.49574219 11.78832031 -1.30398438 12.76414062 -2.13671875 13.76953125 C-2.75160156 14.50558594 -3.36648438 15.24164063 -4 16 C-4.625 14.125 -4.625 14.125 -5 12 C-4.34 11.34 -3.68 10.68 -3 10 C-6.13323425 10 -7.68020784 12.04649081 -10 14 C-8.79618552 11.50638429 -7.54571278 9.31856917 -6 7 C-5.34 7 -4.68 7 -4 7 C-3.71125 6.401875 -3.4225 5.80375 -3.125 5.1875 C-2 3 -2 3 0 0 Z " fill="#B4B9BA" transform="translate(329,303)"/>
<path d="M0 0 C0.99 0.33 1.98 0.66 3 1 C0.42883776 3.57116224 -1.26613069 3.23573 -4.76997375 3.24884033 C-5.57629745 3.24164978 -6.38262115 3.23445923 -7.21337891 3.22705078 C-8.0622316 3.22734283 -8.91108429 3.22763489 -9.78565979 3.22793579 C-12.59939699 3.22653928 -15.41287139 3.21096303 -18.2265625 3.1953125 C-20.17426407 3.19158351 -22.12196752 3.188736 -24.06967163 3.18673706 C-29.20224158 3.17909161 -34.33469879 3.15943532 -39.46722412 3.1373291 C-44.70209223 3.11689028 -49.93697851 3.10773955 -55.171875 3.09765625 C-65.44796627 3.07619027 -75.72397377 3.04204336 -86 3 C-86 2.67 -86 2.34 -86 2 C-84.93733414 1.98969254 -83.87466827 1.97938507 -82.77980042 1.96876526 C-72.78779051 1.87120521 -62.79584531 1.7684881 -52.80394077 1.66066074 C-47.66643531 1.60538692 -42.52892421 1.55195993 -37.39135742 1.50268555 C-32.43763538 1.4551076 -27.48398488 1.40276744 -22.53034782 1.34705925 C-20.63604439 1.32660582 -18.74172132 1.3078978 -16.8473835 1.29092598 C-14.203603 1.26694784 -11.55995902 1.2368847 -8.91625977 1.20532227 C-8.12504227 1.1995668 -7.33382477 1.19381134 -6.51863098 1.18788147 C-2.96329304 1.46490085 -2.96329304 1.46490085 0 0 Z " fill="#272A25" transform="translate(213,268)"/>
<path d="M0 0 C3.82852379 1.51761303 5.73321866 3.79343415 8.25 7 C8.95640625 7.886875 9.6628125 8.77375 10.390625 9.6875 C12 12 12 12 12 14 C9.14223486 14.53583096 7.74263197 14.78434148 5 14 C1.9589606 11.28686398 -0.52997482 8.23348751 -3 5 C-2.01 4.34 -1.02 3.68 0 3 C0 2.01 0 1.02 0 0 Z " fill="#B9C0C0" transform="translate(274,330)"/>
<path d="M0 0 C3.62493334 -0.05787784 7.24974857 -0.0935542 10.875 -0.125 C11.90753906 -0.14175781 12.94007813 -0.15851563 14.00390625 -0.17578125 C14.99003906 -0.18222656 15.97617187 -0.18867188 16.9921875 -0.1953125 C18.35899658 -0.21102295 18.35899658 -0.21102295 19.75341797 -0.22705078 C22 0 22 0 24 2 C23.01 2 22.02 2 21 2 C21 2.66 21 3.32 21 4 C13.74 4 6.48 4 -1 4 C-0.34 3.34 0.32 2.68 1 2 C0.67 1.34 0.34 0.68 0 0 Z " fill="#929B9D" transform="translate(356,321)"/>
<path d="M0 0 C0.66 1.32 1.32 2.64 2 4 C3.32 3.67 4.64 3.34 6 3 C5.52140759 4.60433809 5.04210442 6.20846416 4.5625 7.8125 C4.29566406 8.70582031 4.02882812 9.59914063 3.75390625 10.51953125 C3.19612127 12.35473055 2.60655425 14.18033726 2 16 C1.34 16 0.68 16 0 16 C-1.81742599 11.50988872 -2.12548788 8.70658569 -1 4 C-0.814375 3.21625 -0.62875 2.4325 -0.4375 1.625 C-0.293125 1.08875 -0.14875 0.5525 0 0 Z " fill="#939C9D" transform="translate(141,316)"/>
<path d="M0 0 C0.33 0.66 0.66 1.32 1 2 C1.66 2.33 2.32 2.66 3 3 C2.34 3 1.68 3 1 3 C1 3.66 1 4.32 1 5 C1.639375 5.12375 2.27875 5.2475 2.9375 5.375 C3.618125 5.58125 4.29875 5.7875 5 6 C5.33 6.66 5.66 7.32 6 8 C5.34 8 4.68 8 4 8 C3.7525 8.969375 3.505 9.93875 3.25 10.9375 C2.8375 11.948125 2.425 12.95875 2 14 C-0.125 14.875 -0.125 14.875 -2 15 C-3.6112798 9.28728072 -2.08989546 5.31329355 0 0 Z " fill="#9CA5A7" transform="translate(145,305)"/>
<path d="M0 0 C1.32 0.33 2.64 0.66 4 1 C4 1.66 4 2.32 4 3 C5.98 2.67 7.96 2.34 10 2 C9.01 2.495 9.01 2.495 8 3 C8.33 3.66 8.66 4.32 9 5 C11.97 5 14.94 5 18 5 C18 3.35 18 1.7 18 0 C20.04119788 1.61594832 22.04072937 3.2856382 24 5 C24 5.66 24 6.32 24 7 C20.93601549 7.13530844 17.87802874 7.2342407 14.8125 7.3125 C13.51602539 7.3753418 13.51602539 7.3753418 12.19335938 7.43945312 C7.59055404 7.52762947 5.65021205 7.50010036 1.88671875 4.60546875 C0 2 0 2 0 0 Z " fill="#878B8A" transform="translate(374,279)"/>
<path d="M0 0 C0.33 0.66 0.66 1.32 1 2 C1.66 2 2.32 2 3 2 C3 1.34 3 0.68 3 0 C3.99 0 4.98 0 6 0 C8 3 8 3 7.625 6.1875 C7.41875 7.115625 7.2125 8.04375 7 9 C5.02 9 3.04 9 1 9 C0.63877119 7.68942607 0.28619689 6.37646376 -0.0625 5.0625 C-0.35833984 3.96615234 -0.35833984 3.96615234 -0.66015625 2.84765625 C-0.77230469 2.23792969 -0.88445312 1.62820313 -1 1 C-0.67 0.67 -0.34 0.34 0 0 Z " fill="#9EA8AA" transform="translate(160,335)"/>
<path d="M0 0 C0.99 0.66 1.98 1.32 3 2 C3 2.66 3 3.32 3 4 C3.66 4 4.32 4 5 4 C8 7.46153846 8 7.46153846 8 10 C8.66 10.33 9.32 10.66 10 11 C9.01 11.33 8.02 11.66 7 12 C6.34 11.67 5.68 11.34 5 11 C4.67 11.66 4.34 12.32 4 13 C3.38125 11.39125 3.38125 11.39125 2.75 9.75 C1.36260851 6.47734926 -0.27999908 4.34482838 -3 2 C-2.01 2 -1.02 2 0 2 C0 1.34 0 0.68 0 0 Z " fill="#A3AAAB" transform="translate(363,244)"/>
<path d="M0 0 C2.56818423 -0.09576629 5.07304153 -0.02768131 7.63867188 0.12011719 C8.52683594 0.1471875 9.415 0.17425781 10.33007812 0.20214844 C12.51875582 0.27275094 14.70246756 0.37126192 16.88867188 0.49511719 C15.73693832 2.96311766 14.84083622 4.54295284 12.88867188 6.49511719 C12.55867188 5.17511719 12.22867187 3.85511719 11.88867188 2.49511719 C10.45127675 2.46799652 9.01373325 2.44866652 7.57617188 2.43261719 C6.77566406 2.42101562 5.97515625 2.40941406 5.15039062 2.39746094 C2.72005854 2.39853864 2.72005854 2.39853864 -0.11132812 3.49511719 C-1.32014909 5.49528185 -1.32014909 5.49528185 -2.11132812 7.49511719 C-3.43132812 7.16511719 -4.75132812 6.83511719 -6.11132812 6.49511719 C-3.45543754 0.81031768 -3.45543754 0.81031768 0 0 Z " fill="#595D59" transform="translate(381.111328125,152.5048828125)"/>
<path d="M0 0 C0.33 0 0.66 0 1 0 C1.30460586 2.70827788 1.56923077 5.41109741 1.8125 8.125 C1.90208984 8.88554687 1.99167969 9.64609375 2.08398438 10.4296875 C2.42765735 14.62611546 2.35761334 17.14877462 -0.36328125 20.4921875 C-3 23 -3 23 -5 24 C-4.67 24.66 -4.34 25.32 -4 26 C-4.99 26.33 -5.98 26.66 -7 27 C-8.32 25.02 -9.64 23.04 -11 21 C-8.98177083 20.54427083 -6.96354167 20.08854167 -4.9453125 19.6328125 C-2.79280036 19.09525572 -2.79280036 19.09525572 -1 17 C-0.69324768 14.10032243 -0.48826629 11.28216822 -0.375 8.375 C-0.33632813 7.57320313 -0.29765625 6.77140625 -0.2578125 5.9453125 C-0.16346069 3.96392444 -0.08063785 1.98199355 0 0 Z " fill="#2F332F" transform="translate(286,308)"/>
<path d="M0 0 C2.95183101 2.95183101 3.08663988 5.95511947 4 10 C3.34 10 2.68 10 2 10 C2 10.66 2 11.32 2 12 C1.01 12.495 1.01 12.495 0 13 C0 13.99 0 14.98 0 16 C-2.42130331 13.57869669 -2.52840504 12.19888623 -3.125 8.875 C-3.29257813 7.96492188 -3.46015625 7.05484375 -3.6328125 6.1171875 C-3.75398437 5.41851562 -3.87515625 4.71984375 -4 4 C-2.68 4.33 -1.36 4.66 0 5 C0.33 4.34 0.66 3.68 1 3 C0.34 2.67 -0.32 2.34 -1 2 C-0.67 1.34 -0.34 0.68 0 0 Z " fill="#99A1A0" transform="translate(157,314)"/>
<path d="M0 0 C3.39417765 3.12621626 5.6062718 5.56541027 7 10 C3.6875 10.3125 3.6875 10.3125 0 10 C-1.9375 7.5 -1.9375 7.5 -3 5 C-2.34 5 -1.68 5 -1 5 C-0.67 3.35 -0.34 1.7 0 0 Z " fill="#9CA6A5" transform="translate(330,334)"/>
<path d="M0 0 C0.66 0.66 1.32 1.32 2 2 C1.2575 2.70125 0.515 3.4025 -0.25 4.125 C-3.09191836 6.92478751 -3.09191836 6.92478751 -5.1875 10.3125 C-5.785625 11.199375 -6.38375 12.08625 -7 13 C-7.66 13 -8.32 13 -9 13 C-9 13.66 -9 14.32 -9 15 C-11.78767463 18.09741625 -14.23309364 20.26142784 -18 22 C-12.44500551 14.28472987 -6.2263872 7.17344285 0 0 Z " fill="#848B88" transform="translate(373,161)"/>
<path d="M0 0 C1.32 0 2.64 0 4 0 C4 0.66 4 1.32 4 2 C17.2 2 30.4 2 44 2 C44 2.33 44 2.66 44 3 C38.05517888 3.02467203 32.1103874 3.04284663 26.16552734 3.05493164 C24.14208457 3.05996831 22.11864544 3.06679789 20.09521484 3.07543945 C17.19107157 3.08753412 14.28697631 3.09323488 11.3828125 3.09765625 C10.47443634 3.10281754 9.56606018 3.10797882 8.63015747 3.11329651 C7.78943695 3.11337204 6.94871643 3.11344757 6.08251953 3.11352539 C4.96999313 3.11685631 4.96999313 3.11685631 3.83499146 3.12025452 C2 3 2 3 0 2 C0 1.34 0 0.68 0 0 Z " fill="#A2A6A5" transform="translate(116,283)"/>
<path d="M0 0 C0.33 0 0.66 0 1 0 C0.98839844 0.90363281 0.97679687 1.80726563 0.96484375 2.73828125 C0.95582031 3.91777344 0.94679687 5.09726563 0.9375 6.3125 C0.92589844 7.48425781 0.91429687 8.65601563 0.90234375 9.86328125 C0.85100102 13.03059195 0.85100102 13.03059195 2 16 C2.14632404 20.53604515 2.10636545 24.57453821 1 29 C0.67 29 0.34 29 0 29 C-2.50231125 7.50693374 -2.50231125 7.50693374 0 0 Z " fill="#0B0502" transform="translate(43,248)"/>
<path d="M0 0 C0.99 0.33 1.98 0.66 3 1 C2.34 3.64 1.68 6.28 1 9 C2.65 9.33 4.3 9.66 6 10 C5.67 10.99 5.34 11.98 5 13 C6.32 13.33 7.64 13.66 9 14 C8.67 14.66 8.34 15.32 8 16 C5.37812506 14.95125002 4.20628639 14.35068687 2.75 11.875 C2.5025 11.25625 2.255 10.6375 2 10 C1.34 10 0.68 10 0 10 C-1.75 7.75 -1.75 7.75 -3 5 C-2.28541109 2.85623326 -1.58775583 1.58775583 0 0 Z " fill="#AAAFAF" transform="translate(356,249)"/>
<path d="M0 0 C0.33 0 0.66 0 1 0 C1 3.3 1 6.6 1 10 C3.9254644 10.2236068 3.9254644 10.2236068 6 9 C6 11.31 6 13.62 6 16 C4.02 16 2.04 16 0 16 C0 10.72 0 5.44 0 0 Z " fill="#AAAEAE" transform="translate(298,328)"/>
<path d="M0 0 C4.69564393 3.31457218 7.72469104 7.36279281 11 12 C8 14 8 14 5 14 C5.33 12.35 5.66 10.7 6 9 C5.34 9 4.68 9 4 9 C3.731875 8.401875 3.46375 7.80375 3.1875 7.1875 C2.01506533 5.02775192 0.80630718 3.64209744 -1 2 C-0.67 1.34 -0.34 0.68 0 0 Z " fill="#8F9697" transform="translate(374,257)"/>
<path d="M0 0 C0.66 0 1.32 0 2 0 C0.6696033 3.03252188 -0.68646557 4.85318485 -3.25 6.9375 C-3.86746094 7.44410156 -4.48492187 7.95070313 -5.12109375 8.47265625 C-5.74113281 8.97667969 -6.36117187 9.48070313 -7 10 C-7.56847656 10.49371094 -8.13695313 10.98742187 -8.72265625 11.49609375 C-12.76257082 15 -12.76257082 15 -15 15 C-15 13 -15 13 -13.42578125 11.4140625 C-12.72839844 10.82367188 -12.03101562 10.23328125 -11.3125 9.625 C-10.58417969 9.00753906 -9.85585937 8.39007813 -9.10546875 7.75390625 C-8.41066406 7.17511719 -7.71585937 6.59632812 -7 6 C-6.05125 5.195625 -5.1025 4.39125 -4.125 3.5625 C-2 2 -2 2 0 2 C0 1.34 0 0.68 0 0 Z " fill="#16161A" transform="translate(110,69)"/>
<path d="M0 0 C2.62187494 1.04874998 3.79371361 1.64931313 5.25 4.125 C5.4975 4.74375 5.745 5.3625 6 6 C4.75 7.5625 4.75 7.5625 3 9 C0.9375 8.9375 0.9375 8.9375 -1 8 C-2.25 5.9375 -2.25 5.9375 -3 4 C-2.01 3.67 -1.02 3.34 0 3 C0 2.01 0 1.02 0 0 Z " fill="#B9C1BF" transform="translate(274,330)"/>
<path d="M0 0 C4.95 0 9.9 0 15 0 C15 0.33 15 0.66 15 1 C14.22914062 1.06058594 13.45828125 1.12117187 12.6640625 1.18359375 C11.15972656 1.30927734 11.15972656 1.30927734 9.625 1.4375 C8.12839844 1.55931641 8.12839844 1.55931641 6.6015625 1.68359375 C4.02072387 1.84965626 4.02072387 1.84965626 2 3 C1.97291433 4.60407328 1.95356517 6.2082785 1.9375 7.8125 C1.92589844 8.70582031 1.91429688 9.59914063 1.90234375 10.51953125 C1.88990033 13.13413791 1.88990033 13.13413791 3 16 C2.34 16.99 1.68 17.98 1 19 C-0.26582518 15.13275457 -0.11148138 11.26733981 -0.0625 7.25 C-0.041875 4.8575 -0.02125 2.465 0 0 Z " fill="#5F6563" transform="translate(101,253)"/>
<path d="M0 0 C1.32 0.66 2.64 1.32 4 2 C3.67 4.31 3.34 6.62 3 9 C1.68 8.67 0.36 8.34 -1 8 C-1.33 6.02 -1.66 4.04 -2 2 C-1.34 2 -0.68 2 0 2 C0 1.34 0 0.68 0 0 Z " fill="#313036" transform="translate(72,380)"/>
<path d="M0 0 C0.99 0.66 1.98 1.32 3 2 C1.58611621 3.75224914 0.16877217 5.50170655 -1.25 7.25 C-2.03890625 8.22453125 -2.8278125 9.1990625 -3.640625 10.203125 C-5.66465805 12.60247544 -7.74122349 14.82411437 -10 17 C-10.66 16.67 -11.32 16.34 -12 16 C-11.67 15.34 -11.34 14.68 -11 14 C-10.34 14.33 -9.68 14.66 -9 15 C-8.7525 14.484375 -8.505 13.96875 -8.25 13.4375 C-3.62337662 4.41558442 -3.62337662 4.41558442 0 2 C0 1.34 0 0.68 0 0 Z " fill="#8A9293" transform="translate(377,174)"/>
<path d="M0 0 C0.99 0.33 1.98 0.66 3 1 C3 4.27275026 2.70074844 6.846632 2 10 C0.68 10 -0.64 10 -2 10 C-2.33 8.02 -2.66 6.04 -3 4 C-2.01 4.33 -1.02 4.66 0 5 C-0.2784375 4.0409375 -0.2784375 4.0409375 -0.5625 3.0625 C-0.706875 2.381875 -0.85125 1.70125 -1 1 C-0.67 0.67 -0.34 0.34 0 0 Z " fill="#B4BABB" transform="translate(320,320)"/>
<path d="M0 0 C0.33 1.32 0.66 2.64 1 4 C0.01 4.495 0.01 4.495 -1 5 C-1.144375 5.66 -1.28875 6.32 -1.4375 7 C-1.623125 7.66 -1.80875 8.32 -2 9 C-5.62326739 10.2077558 -6.64146369 9.54311128 -10 8 C-9.01 7.34 -8.02 6.68 -7 6 C-5.75812117 4.97352199 -4.5292978 3.93108866 -3.3125 2.875 C-2.68988281 2.33617187 -2.06726563 1.79734375 -1.42578125 1.2421875 C-0.95527344 0.83226562 -0.48476562 0.42234375 0 0 Z " fill="#242820" transform="translate(229,277)"/>
<path d="M0 0 C0.33 0 0.66 0 1 0 C1 3.63 1 7.26 1 11 C-0.65 11 -2.3 11 -4 11 C-4 9.02 -4 7.04 -4 5 C-2.68 5 -1.36 5 0 5 C0 3.35 0 1.7 0 0 Z " fill="#C6CBCB" transform="translate(250,332)"/>
<path d="M0 0 C1.65 0 3.3 0 5 0 C4.67 1.98 4.34 3.96 4 6 C3.34 6 2.68 6 2 6 C1.67 7.65 1.34 9.3 1 11 C0.67 11 0.34 11 0 11 C0 7.37 0 3.74 0 0 Z " fill="#C3C9CB" transform="translate(219,154)"/>
<path d="M0 0 C0.33 1.32 0.66 2.64 1 4 C-2.28696233 4.79953138 -3.71023192 5.09658936 -7 4 C-7.6875 1.9375 -7.6875 1.9375 -8 0 C-5.13822943 -1.43088528 -3.06624227 -0.59991697 0 0 Z " fill="#BAC2C4" transform="translate(344,218)"/>
<path d="M0 0 C0.99 0.99 1.98 1.98 3 3 C2.360625 3.45375 1.72125 3.9075 1.0625 4.375 C-1.09702406 5.83921726 -1.09702406 5.83921726 -2 8 C-3.98 6.35 -5.96 4.7 -8 3 C-5.32916926 1.66458463 -2.92701445 2 0 2 C0 1.34 0 0.68 0 0 Z " fill="#242328" transform="translate(115,422)"/>
<path d="M0 0 C2 3 2 3 1.625 6.1875 C1.41875 7.115625 1.2125 8.04375 1 9 C-1.5 6.6875 -1.5 6.6875 -4 4 C-4 3.01 -4 2.02 -4 1 C-2.68 0.67 -1.36 0.34 0 0 Z " fill="#BFC4C5" transform="translate(341,232)"/>
<path d="M0 0 C0.99 0.33 1.98 0.66 3 1 C2.8125 2.875 2.8125 2.875 2 5 C-0.89111788 6.52164099 -2.71823412 7 -6 7 C-4.02 4.69 -2.04 2.38 0 0 Z " fill="#A7ABAB" transform="translate(345,194)"/>
<path d="M0 0 C1.04449911 3.13349732 0.93423645 3.98968256 0 7 C-0.66 7 -1.32 7 -2 7 C-2.33 7.66 -2.66 8.32 -3 9 C-3.99 9 -4.98 9 -6 9 C-4.47291037 5.56404834 -2.40072955 2.88087546 0 0 Z " fill="#232622" transform="translate(375,181)"/>
<path d="M0 0 C0.66 0.33 1.32 0.66 2 1 C1.43224464 2.29858939 0.84508337 3.58870441 0.25 4.875 C-0.07484375 5.59429687 -0.3996875 6.31359375 -0.734375 7.0546875 C-2.21929686 9.3370674 -3.50415408 10.00375898 -6 11 C-5.67 9.35 -5.34 7.7 -5 6 C-4.34 6 -3.68 6 -3 6 C-2.01 4.02 -1.02 2.04 0 0 Z " fill="#E4ECE8" transform="translate(231,269)"/>
<path d="M0 0 C1 3 1 3 0 6 C-1.98 6 -3.96 6 -6 6 C-5.67 4.68 -5.34 3.36 -5 2 C-4.01 2.33 -3.02 2.66 -2 3 C-2 2.34 -2 1.68 -2 1 C-1.34 0.67 -0.68 0.34 0 0 Z " fill="#8D9492" transform="translate(167,338)"/>
<path d="M0 0 C0.66 0 1.32 0 2 0 C1.01 3.3 0.02 6.6 -1 10 C-1.66 10 -2.32 10 -3 10 C-3.33 8.35 -3.66 6.7 -4 5 C-3.01 4.67 -2.02 4.34 -1 4 C-0.26676204 1.98491642 -0.26676204 1.98491642 0 0 Z " fill="#212621" transform="translate(166,321)"/>
<path d="M0 0 C0.99 0.66 1.98 1.32 3 2 C0.17493137 4.9297008 -2.78796065 7.50174717 -6 10 C-5.49477778 5.62140745 -2.82172778 3.18348776 0 0 Z " fill="#232521" transform="translate(350,211)"/>
<path d="M0 0 C1.32 0.66 2.64 1.32 4 2 C2.35830472 4.02054804 0.69088222 6.02043058 -1 8 C-1.33 8 -1.66 8 -2 8 C-2.20086443 4.28400809 -2.1519437 3.22791555 0 0 Z " fill="#B3B8B7" transform="translate(346,210)"/>
<path d="M0 0 C0 0.66 0 1.32 0 2 C-0.66 2 -1.32 2 -2 2 C-2 2.66 -2 3.32 -2 4 C-4.78767463 7.09741625 -7.23309364 9.26142784 -11 11 C-10.06558465 9.72689688 -9.12732889 8.456612 -8.1875 7.1875 C-7.66542969 6.47980469 -7.14335937 5.77210938 -6.60546875 5.04296875 C-2.64244742 0 -2.64244742 0 0 0 Z " fill="#8B918E" transform="translate(366,172)"/>
<path d="M0 0 C1.65 1.65 3.3 3.3 5 5 C4.34 5.66 3.68 6.32 3 7 C0.5 5.6875 0.5 5.6875 -2 4 C-2 3.01 -2 2.02 -2 1 C-1.34 0.67 -0.68 0.34 0 0 Z " fill="#22231F" transform="translate(316,327)"/>
<path d="M0 0 C2.15473199 1.5801368 4.10646634 3.10646634 6 5 C6.66 5 7.32 5 8 5 C8.33 6.65 8.66 8.3 9 10 C4.71095765 8.4114658 2.67654474 5.56872632 0 2 C0 1.34 0 0.68 0 0 Z " fill="#868E8C" transform="translate(103,272)"/>
<path d="M0 0 C0.66 0.66 1.32 1.32 2 2 C0.02 4.31 -1.96 6.62 -4 9 C-5 5 -5 5 -5 2 C-3.35 2 -1.7 2 0 2 C0 1.34 0 0.68 0 0 Z " fill="#818D89" transform="translate(392,158)"/>
<path d="M0 0 C1.11375 0.1546875 1.11375 0.1546875 2.25 0.3125 C1.59 0.9725 0.93 1.6325 0.25 2.3125 C-0.76241685 3.63642972 -1.76439389 4.96849167 -2.75 6.3125 C-4.07 5.9825 -5.39 5.6525 -6.75 5.3125 C-3.42692308 0.38942308 -3.42692308 0.38942308 0 0 Z " fill="#86908C" transform="translate(381.75,153.6875)"/>
<path d="M0 0 C1.65 0.33 3.3 0.66 5 1 C5.33 2.32 5.66 3.64 6 5 C5.401875 4.835 4.80375 4.67 4.1875 4.5 C1.88655664 3.8885876 1.88655664 3.8885876 -1 4 C-0.67 2.68 -0.34 1.36 0 0 Z " fill="#333338" transform="translate(79,391)"/>
<path d="M0 0 C3.82946843 1.45255699 5.12050295 3.42895561 7 7 C4.69 6.34 2.38 5.68 0 5 C0 3.33333333 0 1.66666667 0 0 Z " fill="#1F211E" transform="translate(323,337)"/>
<path d="M0 0 C1.65 0 3.3 0 5 0 C4.34 1.65 3.68 3.3 3 5 C2.34 5 1.68 5 1 5 C0.67 5.66 0.34 6.32 0 7 C0 4.69 0 2.38 0 0 Z " fill="#1C1F18" transform="translate(252,330)"/>
<path d="M0 0 C0.99 0.33 1.98 0.66 3 1 C2.01 2.98 1.02 4.96 0 7 C-0.99 6.67 -1.98 6.34 -3 6 C-2.625 3.5625 -2.625 3.5625 -2 1 C-1.34 0.67 -0.68 0.34 0 0 Z " fill="#B4B9BC" transform="translate(356,249)"/>
<path d="M0 0 C0 2 0 2 -2.25 4.5 C-4.5264965 6.56954228 -6.19566446 7.85749293 -9 9 C-7.45665977 5.21180126 -4.44676575 0 0 0 Z " fill="#100F12" transform="translate(95,84)"/>
<path d="M0 0 C0 0.66 0 1.32 0 2 C-0.66 2 -1.32 2 -2 2 C-2.33 2.66 -2.66 3.32 -3 4 C-3.99 3.67 -4.98 3.34 -6 3 C-6 2.01 -6 1.02 -6 0 C-3.50907189 -1.24546405 -2.58919267 -0.7767578 0 0 Z " fill="#33333B" transform="translate(115,422)"/>
<path d="M0 0 C1.5 1.375 1.5 1.375 3 3 C3 3.66 3 4.32 3 5 C0.69 5 -1.62 5 -4 5 C-3 2 -3 2 0 0 Z " fill="#828688" transform="translate(334,339)"/>
<path d="M0 0 C1.37562854 1.28965176 2.70766393 2.62689293 4 4 C4 4.66 4 5.32 4 6 C1.69 6 -0.62 6 -3 6 C-2 4 -1 2 0 0 Z " fill="#9CA29D" transform="translate(282,338)"/>
<path d="M0 0 C1.32 0 2.64 0 4 0 C4 0.66 4 1.32 4 2 C6.64 2 9.28 2 12 2 C12 2.33 12 2.66 12 3 C10.37509046 3.02698189 8.75005367 3.04638757 7.125 3.0625 C5.76761719 3.07990234 5.76761719 3.07990234 4.3828125 3.09765625 C2 3 2 3 0 2 C0 1.34 0 0.68 0 0 Z " fill="#878E8B" transform="translate(116,283)"/>
<path d="M0 0 C1.7074998 1.28062485 3.37373596 2.61767557 5 4 C5 4.66 5 5.32 5 6 C3.35 6 1.7 6 0 6 C0 4.02 0 2.04 0 0 Z " fill="#899090" transform="translate(392,279)"/>
<path d="M0 0 C0.99 0.33 1.98 0.66 3 1 C1.35 2.98 -0.3 4.96 -2 7 C-2.66 6.34 -3.32 5.68 -4 5 C-2.25 1.125 -2.25 1.125 0 0 Z " fill="#282D27" transform="translate(339,198)"/>
<path d="M0 0 C0.66 0 1.32 0 2 0 C0.50902342 3.7952131 -1.75700849 5.61042731 -5 8 C-4.1875 5.5625 -4.1875 5.5625 -3 3 C-2.01 2.67 -1.02 2.34 0 2 C0 1.34 0 0.68 0 0 Z " fill="#1C1B22" transform="translate(110,69)"/>
<path d="M0 0 C2.475 0.495 2.475 0.495 5 1 C4.34 2.32 3.68 3.64 3 5 C2.01 4.67 1.02 4.34 0 4 C0 2.68 0 1.36 0 0 Z " fill="#9BA0A0" transform="translate(349,334)"/>
<path d="M0 0 C0.99 0.66 1.98 1.32 3 2 C3 2.66 3 3.32 3 4 C2.01 4.33 1.02 4.66 0 5 C-0.99 4.01 -1.98 3.02 -3 2 C-2.01 1.34 -1.02 0.68 0 0 Z " fill="#8B9493" transform="translate(389,275)"/>
<path d="M0 0 C0.33 0.99 0.66 1.98 1 3 C-0.32 4.32 -1.64 5.64 -3 7 C-3.66 6.67 -4.32 6.34 -5 6 C-3.35 4.02 -1.7 2.04 0 0 Z " fill="#17171B" transform="translate(81,97)"/>
</svg>
